<svg version="1.1" xmlns="http://www.w3.org/2000/svg" xmlns:xlink="http://www.w3.org/1999/xlink" width="233.8956" height="233.8956" viewBox="0,0,233.8956,233.8956"><g transform="translate(-123.05221,-63.05221)"><g data-paper-data="{&quot;isPaintingLayer&quot;:true}" fill-rule="nonzero" stroke-linecap="butt" stroke-linejoin="miter" stroke-miterlimit="10" stroke-dasharray="" stroke-dashoffset="0" style="mix-blend-mode: normal"><path d="M127.30222,180.00002c0,-62.24127 50.45652,-112.6978 112.6978,-112.6978c62.24127,0 112.6978,50.45652 112.6978,112.6978c0,62.24127 -50.45652,112.6978 -112.6978,112.6978c-62.24127,0 -112.6978,-50.45652 -112.6978,-112.6978z" fill="#25b0f5" stroke="#1976a5" stroke-width="8.5"/><path d="M296.13284,219.29648c-6.87543,19.05111 -25.56467,30.63077 -55.53556,34.41971c-1.36231,0.17029 -2.70334,0.27672 -4.04438,0.3193c-1.74546,2.55434 -4.02308,4.7681 -6.70514,6.49228c-7.02443,4.49138 -13.60185,6.68385 -20.09413,6.68385c-13.34642,0 -27.71457,-9.96192 -27.71457,-31.84409c0,-1.49004 0.06386,-3.42706 0.21287,-6.10913c0.06385,-1.14945 0.12772,-2.04347 0.149,-2.70333c-0.36186,-1.66032 -0.55344,-3.34192 -0.55344,-5.04482v-10.3025c0,-1.68161 0.17029,-3.36321 0.51087,-5.04482c0.02129,-1.42617 0.08514,-3.02264 0.19157,-4.7681c-0.51086,-1.87318 -0.89401,-4.04437 -0.89401,-6.47099c0,-1.10688 0.08514,-2.21376 0.23414,-3.29935c0.80888,-5.70469 3.34193,-11.43067 7.62044,-16.00719c-1.46875,-4.10823 -2.23505,-8.45059 -2.23505,-12.89941v-10.85594c0,-4.40624 0.87273,-9.89807 5.15126,-23.56377c1.78804,-5.87498 2.36276,-7.70559 3.15034,-9.40848c4.19337,-9.40848 10.51536,-14.11272 15.11317,-16.43291c7.51402,-3.74636 15.58146,-5.66212 23.9682,-5.66212c3.87409,0 7.57787,0.40444 11.11137,1.17074c1.57518,-1.06431 3.25678,-1.95833 5.04482,-2.70333c2.27762,-0.97916 4.70424,-1.66032 7.3863,-2.08604c6.70514,-1.14945 13.79343,0.27672 19.96641,4.02308c6.49228,3.95923 13.94243,12.17569 13.02712,29.07688c-0.149,2.98006 -0.40444,6.96058 -0.78758,12.15439c-0.02129,0.12772 -0.02128,0.25543 -0.04257,0.38315c-0.34058,3.76765 -0.83016,9.38719 -1.49003,16.81606c0.17029,2.87364 0.10643,6.08784 -0.149,9.87678c-0.10643,1.44745 -0.34058,2.89491 -0.72373,4.2998c-0.08515,0.3193 -0.17028,0.61729 -0.25543,0.89401c2.87363,3.68251 4.83195,7.365 6.17298,10.55793c1.25588,2.53305 2.3202,5.44925 3.25678,9.00404c0.36187,1.34103 0.59601,2.70334 0.70244,4.08694c0.95788,11.94153 0.46829,18.98725 -1.74547,24.94737z" fill="#fcba24" stroke="none" stroke-width="1"/><path d="M274.54017,196.2308c0.62369,7.74177 0.49596,12.73125 -0.37464,14.97906c-3.62291,10.23651 -15.79432,16.6628 -36.51,19.28526c-6.9925,0.87486 -13.98075,-2.433 -20.97325,-9.9236c0,1.12391 0.24904,4.4935 0.75141,10.11305c0.37464,4.11886 0.31078,7.48846 -0.18731,10.10879c-3.12268,1.99665 -5.61741,2.9971 -7.4906,2.9971c-2.87364,0 -4.3062,-2.80764 -4.3062,-8.42718c0,-0.99832 0.06173,-2.58839 0.18731,-4.77236c0.12346,-2.18184 0.18732,-3.71231 0.18732,-4.58716c0,-2.12223 -0.18731,-3.61864 -0.56195,-4.4935v-10.29825c0,-0.24904 0.06173,-0.53003 0.18731,-0.84294c0.12346,-0.31078 0.24904,-0.59175 0.37464,-0.84293c-0.12559,-1.74546 -0.06386,-4.42965 0.18731,-8.05042c0.24904,-2.24782 0.24904,-3.68037 0,-4.30619c-0.62581,-1.24524 -0.93445,-1.99451 -0.93445,-2.24569c0.49597,-3.49518 3.05883,-5.24277 7.67579,-5.24277c2.99496,0 4.80428,1.06218 5.4301,3.18229c0,1.99665 0.24904,4.932 0.74927,8.79969c0.75141,4.4935 3.12055,8.98914 7.11596,13.48052c4.36792,5.11932 8.54852,7.4906 12.54606,7.11596c4.4935,-0.49597 8.98702,-1.55815 13.48052,-3.18228c6.2411,-2.24782 9.98533,-4.86814 11.23483,-7.8631c0.8706,-2.24782 1.3091,-4.61697 1.3091,-7.11596c0,-7.61193 -2.80765,-13.2932 -8.42506,-17.03743c-2.499,-1.62201 -7.11596,-2.93322 -13.85728,-3.93367c-3.86982,-0.49597 -6.24322,-0.74927 -7.11383,-0.74927c-5.99205,0.12559 -11.57967,-1.80932 -16.75859,-5.80473c-5.18105,-3.99328 -7.76944,-8.61451 -7.76944,-13.85729v-10.85806c0,-2.36915 1.37295,-7.92484 4.121,-16.6628c1.24524,-4.121 1.93278,-6.30283 2.0605,-6.55401c1.12178,-2.62033 2.55647,-4.36792 4.30406,-5.24277c4.24232,-2.1201 8.73583,-3.18228 13.48051,-3.18228c9.23605,0 16.03912,3.74424 20.40917,11.2327c0.37464,0.37464 0.99832,0.93659 1.87318,1.68586c0.12346,-1.74546 0.37464,-4.42965 0.74927,-8.05042c-0.12559,-1.62201 -0.25118,-3.18228 -0.37464,-4.68082c0,-1.74546 0.87061,-2.93111 2.62033,-3.55692c0.4981,-0.24904 1.18563,-0.43637 2.0605,-0.56195c1.24737,-0.24904 2.59053,0.06386 4.02733,0.93446c1.43255,0.87486 2.02644,3.49732 1.7774,7.86311c-0.12559,2.74591 -0.37464,6.61574 -0.74927,11.60734c-0.37464,4.121 -0.93446,10.42383 -1.68586,18.91275c0.24905,1.99665 0.24905,4.74469 0,8.23774c-0.62581,2.37127 -2.49899,3.55691 -5.61741,3.55691c-1.62413,0 -3.18228,-0.43637 -4.68082,-1.3091c-0.74927,-2.36915 -1.12178,-3.37172 -1.12178,-2.9971c0.24692,-3.3696 -0.43849,-7.8631 -2.0605,-13.48052c-1.37509,-2.86937 -3.27595,-6.95631 -5.71107,-12.26295c-2.43514,-5.30451 -5.64934,-8.14621 -9.64262,-8.52085c-4.99373,-0.37464 -8.23775,1.31122 -9.73629,5.05546c-0.4981,1.62413 -1.18777,3.99755 -2.05838,7.11597c-1.49855,4.61909 -2.43514,9.05087 -2.80977,13.29321c-0.12559,1.37509 -0.25118,1.93704 -0.37464,1.68586c0.37464,2.499 0.811,4.99373 1.31123,7.4906c0.62368,3.12055 2.15416,5.49396 4.58716,7.11383c2.43514,1.62413 7.0819,2.62033 13.94881,2.99496c16.85012,1.00258 27.27182,6.86904 31.26722,17.60152c0.62156,1.00045 1.24525,2.68419 1.87106,5.05334z" fill="#ffffff" stroke="none" stroke-width="1"/><g fill="#ffffff" font-family="Pixel" font-weight="normal" font-size="40" text-anchor="start"><text transform="translate(253.78546,247.26558) scale(1.57018,1.57018)" font-size="40" xml:space="preserve" fill="#ffffff" fill-rule="nonzero" stroke="#1976a5" stroke-width="10" stroke-linecap="butt" stroke-linejoin="miter" stroke-miterlimit="10" stroke-dasharray="" stroke-dashoffset="0" font-family="Pixel" font-weight="normal" text-anchor="start" style="mix-blend-mode: normal"><tspan x="0" dy="0">☁</tspan></text><text transform="translate(253.78545,247.26558) scale(1.57018,1.57018)" font-size="40" xml:space="preserve" fill="#ffffff" fill-rule="nonzero" stroke="#ffffff" stroke-width="2" stroke-linecap="butt" stroke-linejoin="miter" stroke-miterlimit="10" stroke-dasharray="" stroke-dashoffset="0" font-family="Pixel" font-weight="normal" text-anchor="start" style="mix-blend-mode: normal"><tspan x="0" dy="0">☁</tspan></text></g></g></g></svg>